<mxfile host="app.diagrams.net" modified="2023-12-05T16:19:36.067Z" agent="Mozilla/5.0 (Windows NT 10.0; Win64; x64) AppleWebKit/537.36 (KHTML, like Gecko) Chrome/119.0.0.0 Safari/537.36" version="22.1.5" etag="Uqbvvj2eLLHRaIkucT0T" type="github">
  <diagram name="Страница — 1" id="zFSm4uwpE6V3R8-2AAQP">
    <mxGraphModel>
      <root>
        <mxCell id="0" />
        <mxCell id="1" parent="0" />
      </root>
    </mxGraphModel>
  </diagram>
</mxfile>
